<?xml version="1.0" encoding="UTF-8" standalone="no"?>
<svg
   xmlns:dc="http://purl.org/dc/elements/1.1/"
   xmlns:cc="http://creativecommons.org/ns#"
   xmlns:rdf="http://www.w3.org/1999/02/22-rdf-syntax-ns#"
   xmlns:svg="http://www.w3.org/2000/svg"
   xmlns="http://www.w3.org/2000/svg"
   id="svg8"
   version="1.1"
   viewBox="0 0 132.29166 39.687501"
   height="150"
   width="500">
  <defs
     id="defs2" />
  <metadata
     id="metadata5">
    <rdf:RDF>
      <cc:Work
         rdf:about="">
        <dc:format>image/svg+xml</dc:format>
        <dc:type
           rdf:resource="http://purl.org/dc/dcmitype/StillImage" />
        <dc:title></dc:title>
      </cc:Work>
    </rdf:RDF>
  </metadata>
  <g
     transform="translate(0,-257.31247)"
     id="layer1">
    <g
       id="g4684">
      <g
         id="g4623"
         transform="rotate(-45.484435,69.009265,275.29334)">
        <path
           id="rect4530"
           d="m 53.636192,262.28421 h 24.074337 v 24.54681 H 53.636192 Z"
           style="fill:#473f15;fill-opacity:1;stroke:#000000;stroke-width:0.59215021;stroke-miterlimit:4;stroke-dasharray:none" />
        <path
           id="rect4540"
           d="m 55.279015,263.92691 h 5.197172 v 5.38616 h -5.197172 z"
           style="fill:#0000ff;fill-opacity:1;stroke:#000000;stroke-width:0.66499996;stroke-miterlimit:4;stroke-dasharray:none" />
        <path
           id="rect4542"
           d="m 60.476189,263.92691 h 5.197172 v 5.38616 h -5.197172 z"
           style="fill:#ff2a2a;fill-opacity:1;stroke:#000000;stroke-width:0.66499996;stroke-miterlimit:4;stroke-dasharray:none" />
        <path
           id="rect4544"
           d="m 70.870537,263.92691 h 5.197172 v 5.38616 h -5.197172 z"
           style="fill:#ff0000;fill-opacity:1;stroke:#000000;stroke-width:0.66499996;stroke-miterlimit:4;stroke-dasharray:none" />
        <path
           id="rect4546"
           d="m 65.673363,263.92691 h 5.197172 v 5.38616 h -5.197172 z"
           style="fill:#473f15;fill-opacity:1;stroke:#000000;stroke-width:0.66499996;stroke-miterlimit:4;stroke-dasharray:none" />
        <path
           id="rect4548"
           d="m 55.279015,269.21866 h 5.197172 v 5.38616 h -5.197172 z"
           style="fill:#473f15;fill-opacity:1;stroke:#000000;stroke-width:0.66499996;stroke-miterlimit:4;stroke-dasharray:none" />
        <path
           id="rect4550"
           d="m 60.476189,269.21866 h 5.197172 v 5.38616 h -5.197172 z"
           style="fill:#ff8080;fill-opacity:1;stroke:#000000;stroke-width:0.66499996;stroke-miterlimit:4;stroke-dasharray:none" />
        <path
           id="rect4552"
           d="m 70.870537,269.21866 h 5.197172 v 5.38616 h -5.197172 z"
           style="fill:#473f15;fill-opacity:1;stroke:#000000;stroke-width:0.66499996;stroke-miterlimit:4;stroke-dasharray:none" />
        <path
           id="rect4554"
           d="m 65.673363,269.21866 h 5.197172 v 5.38616 h -5.197172 z"
           style="fill:#ffff00;fill-opacity:1;stroke:#000000;stroke-width:0.66499996;stroke-miterlimit:4;stroke-dasharray:none" />
        <path
           id="rect4556"
           d="m 55.279015,274.51041 h 5.197172 v 5.38616 h -5.197172 z"
           style="fill:#ff0000;fill-opacity:1;stroke:#000000;stroke-width:0.66499996;stroke-miterlimit:4;stroke-dasharray:none" />
        <path
           id="rect4558"
           d="m 60.476189,274.51041 h 5.197172 v 5.38616 h -5.197172 z"
           style="fill:#6c5353;fill-opacity:1;stroke:#000000;stroke-width:0.66499996;stroke-miterlimit:4;stroke-dasharray:none" />
        <path
           id="rect4560"
           d="m 70.870537,274.51041 h 5.197172 v 5.38616 h -5.197172 z"
           style="fill:#6c5353;fill-opacity:1;stroke:#000000;stroke-width:0.66499996;stroke-miterlimit:4;stroke-dasharray:none" />
        <path
           id="rect4562"
           d="m 65.673363,274.51041 h 5.197172 v 5.38616 h -5.197172 z"
           style="fill:#0000ff;fill-opacity:1;stroke:#000000;stroke-width:0.66499996;stroke-miterlimit:4;stroke-dasharray:none" />
        <path
           id="rect4564"
           d="m 55.279015,279.80215 h 5.197172 v 5.38617 h -5.197172 z"
           style="fill:#ffff00;fill-opacity:1;stroke:#000000;stroke-width:0.66499996;stroke-miterlimit:4;stroke-dasharray:none" />
        <path
           id="rect4566"
           d="m 60.476189,279.80215 h 5.197172 v 5.38617 h -5.197172 z"
           style="fill:#ff8080;fill-opacity:1;stroke:#000000;stroke-width:0.66499996;stroke-miterlimit:4;stroke-dasharray:none" />
        <path
           id="rect4568"
           d="m 70.870537,279.80215 h 5.197172 v 5.38617 h -5.197172 z"
           style="fill:#ff2a2a;fill-opacity:1;stroke:#000000;stroke-width:0.66499996;stroke-miterlimit:4;stroke-dasharray:none" />
        <path
           id="rect4570"
           d="m 65.673363,279.80215 h 5.197172 v 5.38617 h -5.197172 z"
           style="fill:#473f15;fill-opacity:1;stroke:#000000;stroke-width:0.66499996;stroke-miterlimit:4;stroke-dasharray:none" />
      </g>
      <g
         id="text12"
         style="font-style:normal;font-weight:normal;font-size:10.58333302px;line-height:1.25;font-family:sans-serif;letter-spacing:0px;word-spacing:0px;fill:#000000;fill-opacity:1;stroke:#000000;stroke-width:0.66500002;stroke-miterlimit:4;stroke-dasharray:none"
         aria-label="Match     Game">
        <path
           id="path4703"
           style="font-size:16.93333244px;fill:#ffffff;stroke:#000000;stroke-width:0.66500002;stroke-miterlimit:4;stroke-dasharray:none"
           d="m 2.9310902,271.12456 h 2.4887369 l 3.1501951,8.40052 3.1667318,-8.40052 h 2.488737 v 12.34446 H 12.59665 v -10.83964 l -3.1832685,8.46666 H 7.7349311 l -3.183268,-8.46666 v 10.83964 H 2.9310902 Z" />
        <path
           id="path4705"
           style="font-size:16.93333244px;fill:#ffffff;stroke:#000000;stroke-width:0.66500002;stroke-miterlimit:4;stroke-dasharray:none"
           d="m 21.683433,278.81401 q -1.843815,0 -2.554882,0.42168 -0.711068,0.42168 -0.711068,1.43867 0,0.81029 0.529167,1.28985 0.537435,0.47129 1.455208,0.47129 1.265039,0 2.025716,-0.89297 0.768945,-0.90124 0.768945,-2.38952 v -0.339 z m 3.03444,-0.62838 v 5.28339 h -1.521354 v -1.40559 q -0.520898,0.84336 -1.298112,1.2485 -0.777213,0.39687 -1.901692,0.39687 -1.422136,0 -2.265495,-0.79375 -0.835091,-0.80201 -0.835091,-2.14147 0,-1.56269 1.041797,-2.35644 1.050065,-0.79375 3.12539,-0.79375 h 2.133203 v -0.14883 q 0,-1.05007 -0.694531,-1.62057 -0.686263,-0.57878 -1.934766,-0.57878 -0.793749,0 -1.546158,0.19017 -0.752409,0.19017 -1.44694,0.57051 v -1.4056 q 0.835091,-0.32246 1.620573,-0.47956 0.785481,-0.16536 1.529622,-0.16536 2.009179,0 3.001367,1.04179 0.992187,1.0418 0.992187,3.15847 z" />
        <path
           id="path4707"
           style="font-size:16.93333244px;fill:#ffffff;stroke:#000000;stroke-width:0.66500002;stroke-miterlimit:4;stroke-dasharray:none"
           d="m 29.35635,271.57931 v 2.6293 h 3.133658 v 1.18236 H 29.35635 v 5.02708 q 0,1.13275 0.305924,1.45521 0.314193,0.32246 1.265039,0.32246 h 1.562695 v 1.2733 h -1.562695 q -1.761133,0 -2.430859,-0.65319 -0.669727,-0.66145 -0.669727,-2.39778 v -5.02708 h -1.116211 v -1.18236 h 1.116211 v -2.6293 z" />
        <path
           id="path4709"
           style="font-size:16.93333244px;fill:#ffffff;stroke:#000000;stroke-width:0.66500002;stroke-miterlimit:4;stroke-dasharray:none"
           d="m 41.155111,274.56414 v 1.42214 q -0.644921,-0.35554 -1.298112,-0.52917 -0.644921,-0.1819 -1.30638,-0.1819 -1.480013,0 -2.298567,0.94258 -0.818555,0.93431 -0.818555,2.62929 0,1.69499 0.818555,2.63757 0.818554,0.93431 2.298567,0.93431 0.661459,0 1.30638,-0.17363 0.653191,-0.1819 1.298112,-0.53744 v 1.4056 q -0.636653,0.29766 -1.322916,0.44649 -0.677995,0.14882 -1.44694,0.14882 -2.091862,0 -3.323828,-1.31465 -1.231966,-1.31464 -1.231966,-3.54707 0,-2.26549 1.240234,-3.5636 1.248503,-1.29811 3.414779,-1.29811 0.702799,0 1.372525,0.14882 0.669727,0.14056 1.298112,0.42995 z" />
        <path
           id="path4711"
           style="font-size:16.93333244px;fill:#ffffff;stroke:#000000;stroke-width:0.66500002;stroke-miterlimit:4;stroke-dasharray:none"
           d="m 51.498666,277.8797 v 5.58932 h -1.521354 v -5.53971 q 0,-1.31465 -0.51263,-1.96784 -0.51263,-0.65319 -1.537891,-0.65319 -1.231966,0 -1.943033,0.78548 -0.711068,0.78549 -0.711068,2.14148 v 5.23378 h -1.529622 v -12.86536 h 1.529622 v 5.04362 q 0.545703,-0.83509 1.281575,-1.2485 0.744141,-0.41341 1.711524,-0.41341 1.595768,0 2.414323,0.99218 0.818554,0.98392 0.818554,2.90215 z" />
        <path
           id="path4713"
           style="font-size:16.93333244px;fill:#ffffff;stroke:#000000;stroke-width:0.66500002;stroke-miterlimit:4;stroke-dasharray:none"
           d="m 89.929392,281.70789 v -3.31556 h -2.728515 v -1.37252 h 4.382161 v 5.29993 q -0.967383,0.68626 -2.133203,1.0418 -1.16582,0.34726 -2.488737,0.34726 -2.89388,0 -4.530989,-1.68672 -1.628841,-1.69498 -1.628841,-4.71289 0,-3.02617 1.628841,-4.71289 1.637109,-1.69498 4.530989,-1.69498 1.207162,0 2.2903,0.29765 1.091406,0.29766 2.009179,0.87644 v 1.77766 q -0.926041,-0.78548 -1.967838,-1.18235 -1.041797,-0.39688 -2.191081,-0.39688 -2.265494,0 -3.40651,1.26504 -1.132747,1.26504 -1.132747,3.77031 0,2.49701 1.132747,3.76205 1.141016,1.26504 3.40651,1.26504 0.884701,0 1.579232,-0.14883 0.694531,-0.1571 1.248502,-0.47956 z" />
        <path
           id="path4715"
           style="font-size:16.93333244px;fill:#ffffff;stroke:#000000;stroke-width:0.66500002;stroke-miterlimit:4;stroke-dasharray:none"
           d="m 98.776399,278.81401 q -1.843815,0 -2.554882,0.42168 -0.711068,0.42168 -0.711068,1.43867 0,0.81029 0.529167,1.28985 0.537435,0.47129 1.455208,0.47129 1.265039,0 2.025716,-0.89297 0.76895,-0.90124 0.76895,-2.38952 v -0.339 z m 3.034441,-0.62838 v 5.28339 h -1.52135 v -1.40559 q -0.520903,0.84336 -1.298117,1.2485 -0.777213,0.39687 -1.901692,0.39687 -1.422136,0 -2.265495,-0.79375 -0.835091,-0.80201 -0.835091,-2.14147 0,-1.56269 1.041797,-2.35644 1.050065,-0.79375 3.12539,-0.79375 h 2.133208 v -0.14883 q 0,-1.05007 -0.694536,-1.62057 -0.686263,-0.57878 -1.934765,-0.57878 -0.79375,0 -1.546159,0.19017 -0.752409,0.19017 -1.44694,0.57051 v -1.4056 q 0.835091,-0.32246 1.620573,-0.47956 0.785481,-0.16536 1.529622,-0.16536 2.009179,0 3.001365,1.04179 0.99219,1.0418 0.99219,3.15847 z" />
        <path
           id="path4717"
           style="font-size:16.93333244px;fill:#ffffff;stroke:#000000;stroke-width:0.66500002;stroke-miterlimit:4;stroke-dasharray:none"
           d="m 112.15439,275.98628 q 0.57051,-1.02526 1.36426,-1.51309 0.79375,-0.48782 1.86862,-0.48782 1.44694,0 2.23242,1.01699 0.78548,1.00872 0.78548,2.87734 v 5.58932 h -1.52962 v -5.53971 q 0,-1.33118 -0.47129,-1.97611 -0.47129,-0.64492 -1.43867,-0.64492 -1.18236,0 -1.86862,0.78548 -0.68626,0.78549 -0.68626,2.14148 v 5.23378 h -1.52963 v -5.53971 q 0,-1.33945 -0.47128,-1.97611 -0.47129,-0.64492 -1.45521,-0.64492 -1.16582,0 -1.85209,0.79375 -0.68626,0.78548 -0.68626,2.13321 v 5.23378 h -1.52962 v -9.26041 h 1.52962 v 1.43867 q 0.5209,-0.85163 1.2485,-1.25677 0.72761,-0.40514 1.72806,-0.40514 1.00873,0 1.71153,0.51263 0.71106,0.51263 1.05006,1.48828 z" />
        <path
           id="path4719"
           style="font-size:16.93333244px;fill:#ffffff;stroke:#000000;stroke-width:0.66500002;stroke-miterlimit:4;stroke-dasharray:none"
           d="m 129.36058,278.45848 v 0.74414 h -6.99493 q 0.0992,1.57096 0.94258,2.39778 0.85163,0.81856 2.36472,0.81856 0.87643,0 1.69498,-0.21497 0.82683,-0.21498 1.63711,-0.64493 v 1.43868 q -0.81855,0.34726 -1.67845,0.52916 -0.85989,0.1819 -1.74459,0.1819 -2.21589,0 -3.514,-1.28984 -1.28985,-1.28984 -1.28985,-3.48919 0,-2.27377 1.2237,-3.60495 1.23197,-1.33945 3.31556,-1.33945 1.86862,0 2.95176,1.20716 1.09141,1.19889 1.09141,3.26595 z m -1.52136,-0.44649 q -0.0165,-1.2485 -0.7028,-1.99264 -0.67799,-0.74414 -1.80247,-0.74414 -1.27331,0 -2.04225,0.71934 -0.76068,0.71933 -0.87644,2.02571 z" />
      </g>
    </g>
  </g>
</svg>
